<svg xmlns="http://www.w3.org/2000/svg" width="20" height="20" viewBox="0 0 20 20">
  <g transform="translate(-0.06895215,-263.76395)">
    <path stroke="#434343"
       d="m 16.444865,264.91233 c -1.432846,0 -2.60385,1.15386 -2.60385,2.57071 0,1.41687 1.171004,2.57073 2.60385,2.57073 1.432846,0 2.599724,-1.15386 2.599724,-2.57073 0,-1.41685 -1.166878,-2.57071 -2.599724,-2.57071 z m 0,0.55494 c 1.130735,0 2.038514,0.89765 2.038514,2.01577 0,1.11813 -0.907779,2.01986 -2.038514,2.01986 -1.130735,0 -2.04264,-0.90173 -2.04264,-2.01986 0,-1.11812 0.911905,-2.01577 2.04264,-2.01577 z"
    />
    <path stroke="#434343"
       d="m 3.8593982,277.3583 c -1.4328462,0 -2.6038503,1.15385 -2.6038503,2.5707 0,1.41687 1.1710041,2.57073 2.6038503,2.57073 1.4328462,0 2.5997239,-1.15386 2.5997237,-2.57073 0,-1.41685 -1.1668775,-2.5707 -2.5997237,-2.5707 z m 0,0.55494 c 1.1307352,0 2.0385135,0.89765 2.0385135,2.01576 0,1.11814 -0.9077783,2.01987 -2.0385135,2.01987 -1.1307352,0 -2.0426402,-0.90173 -2.0426402,-2.01987 0,-1.11811 0.911905,-2.01576 2.0426402,-2.01576 z"
    />
    <path stroke="#434343"
       d="M 14.637346,269.04608 C 5.48268,278.20081 5.48268,278.26395 5.48268,278.26395"
    />
  </g>
</svg>
