<?xml version="1.0" encoding="UTF-8"?><!DOCTYPE svg PUBLIC "-//W3C//DTD SVG 1.1//EN" "http://www.w3.org/Graphics/SVG/1.1/DTD/svg11.dtd"><svg xmlns="http://www.w3.org/2000/svg" xmlns:xlink="http://www.w3.org/1999/xlink"><defs>
        <circle id="a" cx="16" cy="16" r="16"/>
    </defs><symbol id="icon-a-ic-apply" viewBox="0 0 24 24">
    <g fill="none" fill-rule="evenodd">
        <path d="M0 0h24v24H0z"/>
        <path stroke="#434343" d="M4 12.011l5 5L20.011 6"/>
    </g>
</symbol><symbol id="icon-a-ic-baseline" viewBox="1 -117 500.718 500">
    <g fill="none">
        <path fill="#434343" d="M 10.949219 0.425781 C 4.90625 0.425781 0 5.332031 0 11.375 L 0 256.453125 C 0 262.5 4.90625 267.40625 10.949219 267.40625 C 16.996094 267.40625 21.902344 262.5 21.902344 256.453125 L 21.902344 11.375 C 21.902344 5.332031 16.996094 0.425781 10.949219 0.425781 Z M 10.949219 0.425781 "/>
        <path fill="#434343" d="M 490.050781 0.425781 C 484.003906 0.425781 479.097656 5.332031 479.097656 11.375 L 479.097656 256.453125 C 479.097656 262.5 484.003906 267.40625 490.050781 267.40625 C 496.09375 267.40625 501 262.5 501 256.453125 L 501 11.375 C 501 5.332031 496.09375 0.425781 490.050781 0.425781 Z M 490.050781 0.425781 "/>
        <!-- <path stroke="#434343" d="M 432.226562 124.386719 L 378.460938 93.398438 C 373.226562 90.375 366.523438 92.171875 363.5 97.40625 C 362.539062 99.082031 362.023438 100.988281 362.035156 102.925781 L 362.035156 122.964844 L 138.855469 122.964844 L 138.855469 102.816406 C 138.878906 96.769531 133.996094 91.84375 127.949219 91.820312 C 126.011719 91.808594 124.105469 92.324219 122.429688 93.289062 L 68.660156 124.390625 C 63.425781 127.421875 61.652344 134.125 64.6875 139.359375 C 65.640625 141.011719 67.019531 142.382812 68.660156 143.335938 L 122.539062 174.433594 C 127.773438 177.457031 134.476562 175.660156 137.5 170.425781 C 138.460938 168.75 138.976562 166.84375 138.964844 164.90625 L 138.964844 144.867188 L 362.035156 144.867188 L 362.035156 165.015625 C 362.011719 171.0625 366.894531 175.988281 372.941406 176.011719 C 374.878906 176.023438 376.785156 175.507812 378.460938 174.542969 L 432.339844 143.441406 C 437.574219 140.410156 439.347656 133.707031 436.3125 128.472656 C 435.359375 126.820312 433.980469 125.449219 432.339844 124.496094 Z M 116.953125 146.289062 L 96.039062 133.914062 L 117.066406 121.757812 Z M 383.824219 146.289062 L 383.824219 121.757812 L 404.851562 133.914062 Z M 383.824219 146.289062 "/> -->
        <path fill="#434343" d="M432.22656,124.38672L378.46094,93.39844C373.22656,90.375 366.52344,92.17188 363.5,97.40625C362.53906,99.08203 362.02344,100.98828 362.03516,102.92578L362.03516,122.96484L138.85547,122.96484L138.85547,102.81641C138.87891,96.76953 133.99609,91.84375 127.94922,91.82031C126.01172,91.80859 124.10547,92.32422 122.42969,93.28906L68.66016,124.39063C63.42578,127.42188 61.65234,134.125 64.6875,139.35938C65.64063,141.01172 67.01953,142.38281 68.66016,143.33594L122.53906,174.43359C127.77344,177.45703 134.47656,175.66016 137.5,170.42578C138.46094,168.75 138.97656,166.84375 138.96484,164.90625L138.96484,144.86719L362.03516,144.86719L362.03516,165.01563C362.01172,171.0625 366.89453,175.98828 372.94141,176.01172C374.87891,176.02344 376.78516,175.50781 378.46094,174.54297L432.33984,143.44141C437.57422,140.41016 439.34766,133.70703 436.3125,128.47266C435.35938,126.82031 433.98047,125.44922 432.33984,124.49609zM116.95313,146.28906L122.05062,147.78689L117.06641,121.75781zM371.10746,135.3064L384.40225,141.41099L392.1348,122.9314zM383.82422,146.28906" id="svg_4" class=""/>
    </g>
</symbol><symbol id="icon-a-ic-cancel" viewBox="0 0 24 24">
    <g fill="none" fill-rule="evenodd">
        <path d="M0 0h24v24H0z"/>
        <path stroke="#434343" d="M6 6l12 12M18 6L6 18"/>
    </g>
</symbol><symbol id="icon-a-ic-color-transparent-w" viewBox="0 0 32 32">
    
    <g fill="none" fill-rule="evenodd">
        <g>
            <use fill="#FFF" xlink:href="#a"/>
            <circle cx="16" cy="16" r="15.5" stroke="#D5D5D5"/>
        </g>
        <path stroke="#FF4040" stroke-width="1.5" d="M27 5L5 27"/>
    </g>
</symbol><symbol id="icon-a-ic-crop" viewBox="0 0 24 24">
    <g fill="none" fill-rule="evenodd">
        <path d="M0 0h24v24H0z"/>
        <path fill="#434343" d="M4 0h1v20a1 1 0 0 1-1-1V0zM20 17h-1V5h1v12zm0 2v5h-1v-5h1z"/>
        <path fill="#434343" d="M5 19h19v1H5zM4.762 4v1H0V4h4.762zM7 4h12a1 1 0 0 1 1 1H7V4z"/>
    </g>
</symbol><symbol id="icon-a-ic-delete-all" viewBox="0 0 24 24">
    <g fill="#434343" fill-rule="evenodd">
        <path d="M5 23H3a1 1 0 0 1-1-1V6h1v16h2v1zm16-10h-1V6h1v7zM9 13H8v-3h1v3zm3 0h-1v-3h1v3zm3 0h-1v-3h1v3zM14.794 3.794L13 2h-3L8.206 3.794A.963.963 0 0 1 8 2.5l.703-1.055A1 1 0 0 1 9.535 1h3.93a1 1 0 0 1 .832.445L15 2.5a.965.965 0 0 1-.206 1.294zM14.197 4H8.803h5.394z"/>
        <path d="M0 3h23v1H0zM11.286 21H8.714L8 23H7l1-2.8V20h.071L9.5 16h1l1.429 4H12v.2l1 2.8h-1l-.714-2zm-.357-1L10 17.4 9.071 20h1.858zM20 22h3v1h-4v-7h1v6zm-5 0h3v1h-4v-7h1v6z"/>
    </g>
</symbol><symbol id="icon-a-ic-delete" viewBox="0 0 24 24">
    <g fill="#434343" fill-rule="evenodd">
        <path d="M3 6v16h17V6h1v16a1 1 0 0 1-1 1H3a1 1 0 0 1-1-1V6h1zM14.794 3.794L13 2h-3L8.206 3.794A.963.963 0 0 1 8 2.5l.703-1.055A1 1 0 0 1 9.535 1h3.93a1 1 0 0 1 .832.445L15 2.5a.965.965 0 0 1-.206 1.294zM14.197 4H8.803h5.394z"/>
        <path d="M0 3h23v1H0zM8 10h1v6H8v-6zm3 0h1v6h-1v-6zm3 0h1v6h-1v-6z"/>
    </g>
</symbol><symbol id="icon-a-ic-draw-free" viewBox="0 0 32 32">
    <g fill="none" fill-rule="evenodd">
        <path stroke="#434343" d="M2.5 20.929C2.594 10.976 4.323 6 7.686 6c5.872 0 2.524 19 7.697 19s1.89-14.929 6.414-14.929 1.357 10.858 5.13 10.858c1.802 0 2.657-2.262 2.566-6.786"/>
    </g>
</symbol><symbol id="icon-a-ic-draw-line" viewBox="0 0 32 32">
    <g fill="none" fill-rule="evenodd">
        <path stroke="#434343" d="M2 15.5h28"/>
    </g>
</symbol><symbol id="icon-a-ic-draw" viewBox="0 0 24 24">
    <g fill="none">
        <path stroke="#434343" d="M2.5 21.5H5c.245 0 .48-.058.691-.168l.124-.065.14.01c.429.028.85-.127 1.16-.437L22.55 5.405a.5.5 0 0 0 0-.707l-3.246-3.245a.5.5 0 0 0-.707 0L3.162 16.888a1.495 1.495 0 0 0-.437 1.155l.01.14-.065.123c-.111.212-.17.448-.17.694v2.5z"/>
        <path fill="#434343" d="M16.414 3.707l3.89 3.89-.708.706-3.889-3.889z"/>
    </g>
</symbol><symbol id="icon-a-ic-filter" viewBox="0 0 24 24">
    <g fill="none" fill-rule="evenodd">
        <path d="M0 0h24v24H0z"/>
        <path fill="#434343" d="M12 7v1H2V7h10zm6 0h4v1h-4V7zM12 16v1h10v-1H12zm-6 0H2v1h4v-1z"/>
        <path fill="#434343" d="M8.5 20a3.5 3.5 0 1 1 0-7 3.5 3.5 0 0 1 0 7zm0-1a2.5 2.5 0 1 0 0-5 2.5 2.5 0 0 0 0 5zM15.5 11a3.5 3.5 0 1 1 0-7 3.5 3.5 0 0 1 0 7zm0-1a2.5 2.5 0 1 0 0-5 2.5 2.5 0 0 0 0 5z"/>
    </g>
</symbol><symbol id="icon-a-ic-flip-reset" viewBox="0 0 31 32">
    <g fill="none" fill-rule="evenodd">
        <path d="M31 0H0v32h31z"/>
        <path fill="#434343" d="M28 16a8 8 0 0 1-8 8H3v-1h1v-7H3a8 8 0 0 1 8-8h17v1h-1v7h1zM11 9a7 7 0 0 0-7 7v7h16a7 7 0 0 0 7-7V9H11z"/>
        <path stroke="#434343" stroke-linecap="square" d="M24 5l3.5 3.5L24 12M7 20l-3.5 3.5L7 27"/>
    </g>
</symbol><symbol id="icon-a-ic-flip-x" viewBox="0 0 32 32">
    <g fill="none" fill-rule="evenodd">
        <path d="M32 32H0V0h32z"/>
        <path fill="#434343" d="M17 32h-1V0h1zM27.167 11l.5 3h-1.03l-.546-3h1.076zm-.5-3h-1.122L25 5h-5V4h5.153a1 1 0 0 1 .986.836L26.667 8zm1.5 9l.5 3h-.94l-.545-3h.985zm1 6l.639 3.836A1 1 0 0 1 28.819 28H26v-1h3l-.726-4h.894zM23 28h-3v-1h3v1zM13 4v1H7L3 27h10v1H3.18a1 1 0 0 1-.986-1.164l3.666-22A1 1 0 0 1 6.847 4H13z"/>
    </g>
</symbol><symbol id="icon-a-ic-flip-y" viewBox="0 0 32 32">
    <g fill="none" fill-rule="evenodd">
        <path d="M0 0v32h32V0z"/>
        <path fill="#434343" d="M0 16v1h32v-1zM11 27.167l3 .5v-1.03l-3-.546v1.076zm-3-.5v-1.122L5 25v-5H4v5.153a1 1 0 0 0 .836.986L8 26.667zm9 1.5l3 .5v-.94l-3-.545v.985zm6 1l3.836.639A1 1 0 0 0 28 28.82V26h-1v3l-4-.727v.894zM28 23v-3h-1v3h1zM4 13h1V7l22-4v10h1V3.18a1 1 0 0 0-1.164-.986l-22 3.667A1 1 0 0 0 4 6.847V13z"/>
    </g>
</symbol><symbol id="icon-a-ic-flip" viewBox="0 0 24 24">
    <g fill="none" fill-rule="evenodd">
        <path d="M0 0h24v24H0z"/>
        <path fill="#434343" d="M11 0h1v24h-1zM19 21v-1h2v-2h1v2a1 1 0 0 1-1 1h-2zm-2 0h-3v-1h3v1zm5-5h-1v-3h1v3zm0-5h-1V8h1v3zm0-5h-1V4h-2V3h2a1 1 0 0 1 1 1v2zm-5-3v1h-3V3h3zM9 3v1H2v16h7v1H2a1 1 0 0 1-1-1V4a1 1 0 0 1 1-1h7z"/>
    </g>
</symbol><symbol id="icon-a-ic-icon-arrow-2" viewBox="0 0 32 32">
    <g fill="none" fill-rule="evenodd">
        <path stroke="#434343" stroke-linecap="round" stroke-linejoin="round" d="M21.793 18.5H2.5v-5h18.935l-7.6-8h5.872l10.5 10.5-10.5 10.5h-5.914l8-8z"/>
    </g>
</symbol><symbol id="icon-a-ic-icon-arrow-3" viewBox="0 0 32 32">
    <g fill="none" fill-rule="evenodd">
        <path stroke="#434343" stroke-linecap="round" stroke-linejoin="round" d="M25.288 16.42L14.208 27.5H6.792l11.291-11.291L6.826 4.5h7.381l11.661 11.661-.58.258z"/>
    </g>
</symbol><symbol id="icon-a-ic-icon-arrow" viewBox="0 0 32 32">
    <g fill="none" fill-rule="evenodd">
        <path stroke="#434343" d="M2.5 11.5v9h18v5.293L30.293 16 20.5 6.207V11.5h-18z"/>
    </g>
</symbol><symbol id="icon-a-ic-icon-bubble" viewBox="0 0 32 32">
    <g fill="none" fill-rule="evenodd">
        <path stroke="#434343" stroke-linecap="round" stroke-linejoin="round" d="M22.207 24.5L16.5 30.207V24.5H8A6.5 6.5 0 0 1 1.5 18V9A6.5 6.5 0 0 1 8 2.5h16A6.5 6.5 0 0 1 30.5 9v9a6.5 6.5 0 0 1-6.5 6.5h-1.793z"/>
    </g>
</symbol><symbol id="icon-a-ic-icon-heart" viewBox="0 0 32 32">
    <g fill="none" fill-rule="evenodd">
        <path fill-rule="nonzero" stroke="#434343" d="M15.996 30.675l1.981-1.79c7.898-7.177 10.365-9.718 12.135-13.012.922-1.716 1.377-3.37 1.377-5.076 0-4.65-3.647-8.297-8.297-8.297-2.33 0-4.86 1.527-6.817 3.824l-.38.447-.381-.447C13.658 4.027 11.126 2.5 8.797 2.5 4.147 2.5.5 6.147.5 10.797c0 1.714.46 3.375 1.389 5.098 1.775 3.288 4.26 5.843 12.123 12.974l1.984 1.806z"/>
    </g>
</symbol><symbol id="icon-a-ic-icon-load" viewBox="0 0 32 32">
    <g fill="none" fill-rule="evenodd">
        <path stroke="#434343" stroke-linecap="round" stroke-linejoin="round" d="M17.314 18.867l1.951-2.53 4 5.184h-17l6.5-8.84 4.549 6.186z"/>
        <path fill="#434343" d="M18.01 4a11.798 11.798 0 0 0 0 1H3v24h24V14.986a8.738 8.738 0 0 0 1 0V29a1 1 0 0 1-1 1H3a1 1 0 0 1-1-1V5a1 1 0 0 1 1-1h15.01z"/>
        <path fill="#434343" d="M25 3h1v9h-1z"/>
        <path stroke="#434343" d="M22 6l3.5-3.5L29 6"/>
    </g>
</symbol><symbol id="icon-a-ic-icon-location" viewBox="0 0 32 32">
    <g fill="none" fill-rule="evenodd">
        <g stroke="#434343">
            <path d="M16 31.28C23.675 23.302 27.5 17.181 27.5 13c0-6.351-5.149-11.5-11.5-11.5S4.5 6.649 4.5 13c0 4.181 3.825 10.302 11.5 18.28z"/>
            <circle cx="16" cy="13" r="4.5"/>
        </g>
    </g>
</symbol><symbol id="icon-a-ic-icon-polygon" viewBox="0 0 32 32">
    <g fill="none" fill-rule="evenodd">
        <path stroke="#434343" d="M.576 16L8.29 29.5h15.42L31.424 16 23.71 2.5H8.29L.576 16z"/>
    </g>
</symbol><symbol id="icon-a-ic-icon-star-2" viewBox="0 0 32 32">
    <g fill="none" fill-rule="evenodd">
        <path stroke="#434343" d="M19.446 31.592l2.265-3.272 3.946.25.636-3.94 3.665-1.505-1.12-3.832 2.655-2.962-2.656-2.962 1.12-3.832-3.664-1.505-.636-3.941-3.946.25-2.265-3.271L16 3.024 12.554 1.07 10.289 4.34l-3.946-.25-.636 3.941-3.665 1.505 1.12 3.832L.508 16.33l2.656 2.962-1.12 3.832 3.664 1.504.636 3.942 3.946-.25 2.265 3.27L16 29.638l3.446 1.955z"/>
    </g>
</symbol><symbol id="icon-a-ic-icon-star" viewBox="0 0 32 32">
    <g fill="none" fill-rule="evenodd">
        <path stroke="#434343" d="M25.292 29.878l-1.775-10.346 7.517-7.327-10.388-1.51L16 1.282l-4.646 9.413-10.388 1.51 7.517 7.327-1.775 10.346L16 24.993l9.292 4.885z"/>
    </g>
</symbol><symbol id="icon-a-ic-icon" viewBox="0 0 24 24">
    <g fill="none">
        <path stroke="#434343" stroke-linecap="round" stroke-linejoin="round" d="M11.923 19.136L5.424 22l.715-7.065-4.731-5.296 6.94-1.503L11.923 2l3.574 6.136 6.94 1.503-4.731 5.296L18.42 22z"/>
    </g>
</symbol><symbol id="icon-a-ic-mask-load" viewBox="0 0 32 32">
    <g fill="none" fill-rule="evenodd">
        <path d="M0 0h32v32H0z"/>
        <path fill="#434343" d="M18.01 4a11.798 11.798 0 0 0 0 1H3v24h24V14.986a8.738 8.738 0 0 0 1 0V29a1 1 0 0 1-1 1H3a1 1 0 0 1-1-1V5a1 1 0 0 1 1-1h15.01zM15 23a6 6 0 1 1 0-12 6 6 0 0 1 0 12zm0-1a5 5 0 1 0 0-10 5 5 0 0 0 0 10z"/>
        <path fill="#434343" d="M25 3h1v9h-1z"/>
        <path stroke="#434343" d="M22 6l3.5-3.5L29 6"/>
    </g>
</symbol><symbol id="icon-a-ic-mask" viewBox="0 0 24 24">
    <g fill="none">
        <circle cx="12" cy="12" r="4.5" stroke="#434343"/>
        <path fill="#434343" d="M2 1h20a1 1 0 0 1 1 1v20a1 1 0 0 1-1 1H2a1 1 0 0 1-1-1V2a1 1 0 0 1 1-1zm0 1v20h20V2H2z"/>
    </g>
</symbol><symbol id="icon-a-ic-measure-line" viewBox="0 0 20 20">
  <g transform="translate(-0.06895215,-263.76395)">
    <path stroke="#434343" d="m 16.444865,264.91233 c -1.432846,0 -2.60385,1.15386 -2.60385,2.57071 0,1.41687 1.171004,2.57073 2.60385,2.57073 1.432846,0 2.599724,-1.15386 2.599724,-2.57073 0,-1.41685 -1.166878,-2.57071 -2.599724,-2.57071 z m 0,0.55494 c 1.130735,0 2.038514,0.89765 2.038514,2.01577 0,1.11813 -0.907779,2.01986 -2.038514,2.01986 -1.130735,0 -2.04264,-0.90173 -2.04264,-2.01986 0,-1.11812 0.911905,-2.01577 2.04264,-2.01577 z"/>
    <path stroke="#434343" d="m 3.8593982,277.3583 c -1.4328462,0 -2.6038503,1.15385 -2.6038503,2.5707 0,1.41687 1.1710041,2.57073 2.6038503,2.57073 1.4328462,0 2.5997239,-1.15386 2.5997237,-2.57073 0,-1.41685 -1.1668775,-2.5707 -2.5997237,-2.5707 z m 0,0.55494 c 1.1307352,0 2.0385135,0.89765 2.0385135,2.01576 0,1.11814 -0.9077783,2.01987 -2.0385135,2.01987 -1.1307352,0 -2.0426402,-0.90173 -2.0426402,-2.01987 0,-1.11811 0.911905,-2.01576 2.0426402,-2.01576 z"/>
    <path stroke="#434343" d="M 14.637346,269.04608 C 5.48268,278.20081 5.48268,278.26395 5.48268,278.26395"/>
  </g>
</symbol><symbol id="icon-a-ic-measure" viewBox="1 -69 544.607 544">
<g id="surface1">
<path fill="#434343" d="M 186.742188 198.046875 C 231.867188 198.046875 268.667969 170.335938 268.667969 136.386719 C 268.667969 102.433594 231.976562 74.722656 186.742188 74.722656 C 141.507812 74.722656 104.816406 102.433594 104.816406 136.386719 C 104.816406 170.335938 141.617188 198.046875 186.742188 198.046875 Z M 186.742188 96.625 C 219.597656 96.625 246.761719 114.808594 246.761719 136.382812 C 246.761719 157.960938 219.269531 176.140625 186.742188 176.140625 C 154.210938 176.140625 126.71875 157.960938 126.71875 136.382812 C 126.71875 114.808594 154.210938 96.515625 186.742188 96.515625 Z M 186.742188 96.625 "/>
<path fill="#434343" d="M 534.046875 250.292969 L 372.386719 250.292969 L 372.386719 136.273438 C 372.386719 61.359375 289.039062 0.355469 186.195312 0.355469 C 83.347656 0.355469 0 61.359375 0 136.273438 L 0 270.992188 C 0 339.992188 70.644531 396.945312 161.660156 405.597656 L 163.523438 405.597656 C 171.078125 406.257812 178.746094 406.804688 186.523438 406.804688 L 534.046875 406.804688 C 540.09375 406.804688 545 401.898438 545 395.851562 L 545 261.242188 C 545 255.199219 540.09375 250.292969 534.046875 250.292969 Z M 186.742188 22.367188 C 277.097656 22.367188 351.03125 73.515625 351.03125 136.386719 C 351.03125 199.253906 277.539062 250.402344 186.742188 250.402344 C 95.945312 250.402344 22.453125 199.253906 22.453125 136.382812 C 22.453125 73.515625 96.492188 22.367188 186.742188 22.367188 Z M 351.03125 200.238281 L 351.03125 250.292969 L 287.503906 250.292969 C 312.300781 239.054688 333.933594 221.859375 350.480469 200.238281 Z M 523.09375 384.898438 L 501.1875 384.898438 L 501.1875 329.476562 C 501.1875 323.433594 496.28125 318.523438 490.238281 318.523438 C 484.191406 318.523438 479.285156 323.429688 479.285156 329.476562 L 479.285156 385.007812 L 435.472656 385.007812 L 435.472656 354.886719 C 435.472656 348.839844 430.566406 343.933594 424.519531 343.933594 C 418.472656 343.933594 413.566406 348.839844 413.566406 354.886719 L 413.566406 385.007812 L 369.757812 385.007812 L 369.757812 354.886719 C 369.757812 348.839844 364.851562 343.933594 358.804688 343.933594 C 352.757812 343.933594 347.851562 348.839844 347.851562 354.886719 L 347.851562 385.007812 L 304.039062 385.007812 L 304.039062 329.476562 C 304.039062 323.433594 299.132812 318.523438 293.085938 318.523438 C 287.042969 318.523438 282.132812 323.429688 282.132812 329.476562 L 282.132812 385.007812 L 240.1875 385.007812 L 240.1875 354.886719 C 240.1875 348.839844 235.277344 343.933594 229.234375 343.933594 C 223.1875 343.933594 218.28125 348.839844 218.28125 354.886719 L 218.28125 385.007812 L 186.734375 385.007812 C 182.574219 385.007812 178.523438 385.007812 174.46875 385.007812 L 174.46875 354.886719 C 174.46875 348.839844 169.5625 343.933594 163.515625 343.933594 C 157.46875 343.933594 152.5625 348.839844 152.5625 354.886719 L 152.5625 382.378906 C 78.640625 371.425781 23 325.644531 23 270.882812 L 23 200.238281 C 54.324219 243.0625 115.988281 272.195312 187.289062 272.195312 L 523.09375 272.195312 Z M 523.09375 384.898438 "/>
</g>
</symbol><symbol id="icon-a-ic-redo" viewBox="0 0 24 24">
    <g fill="none" fill-rule="evenodd">
        <path d="M0 0h24v24H0z" opacity=".5"/>
        <path fill="#434343" d="M21 6H9a6 6 0 1 0 0 12h12v1H9A7 7 0 0 1 9 5h12v1z"/>
        <path stroke="#434343" stroke-linecap="square" d="M19 3l2.5 2.5L19 8"/>
    </g>
</symbol><symbol id="icon-a-ic-reset" viewBox="0 0 24 24">
    <g fill="none" fill-rule="evenodd">
        <path d="M0 0h24v24H0z" opacity=".5"/>
        <path fill="#434343" d="M2 13v-1a7 7 0 0 1 7-7h13v1h-1v5h1v1a7 7 0 0 1-7 7H2v-1h1v-5H2zm7-7a6 6 0 0 0-6 6v6h12a6 6 0 0 0 6-6V6H9z"/>
        <path stroke="#434343" stroke-linecap="square" d="M19 3l2.5 2.5L19 8M5 16l-2.5 2.5L5 21"/>
    </g>
</symbol><symbol id="icon-a-ic-rotate-clockwise" viewBox="0 0 32 32">
    <g fill="none" fill-rule="evenodd">
        <path fill="#434343" d="M29 17h-.924c0 6.627-5.373 12-12 12-6.628 0-12-5.373-12-12C4.076 10.398 9.407 5.041 16 5V4C8.82 4 3 9.82 3 17s5.82 13 13 13 13-5.82 13-13z"/>
        <path stroke="#434343" stroke-linecap="square" d="M16 1.5l4 3-4 3"/>
        <path fill="#434343" fill-rule="nonzero" d="M16 4h4v1h-4z"/>
    </g>
</symbol><symbol id="icon-a-ic-rotate-counterclockwise" viewBox="0 0 32 32">
    <g fill="none" fill-rule="evenodd">
        <path fill="#434343" d="M3 17h.924c0 6.627 5.373 12 12 12 6.628 0 12-5.373 12-12 0-6.602-5.331-11.96-11.924-12V4c7.18 0 13 5.82 13 13s-5.82 13-13 13S3 24.18 3 17z"/>
        <path fill="#434343" fill-rule="nonzero" d="M12 4h4v1h-4z"/>
        <path stroke="#434343" stroke-linecap="square" d="M16 1.5l-4 3 4 3"/>
    </g>
</symbol><symbol id="icon-a-ic-rotate" viewBox="0 0 24 24">
    <g fill="none" fill-rule="evenodd">
        <path d="M0 0h24v24H0z"/>
        <path fill="#434343" d="M8.349 22.254a10.002 10.002 0 0 1-2.778-1.719l.65-.76a9.002 9.002 0 0 0 2.495 1.548l-.367.931zm2.873.704l.078-.997a9 9 0 1 0-.557-17.852l-.14-.99A10.076 10.076 0 0 1 12.145 3c5.523 0 10 4.477 10 10s-4.477 10-10 10c-.312 0-.62-.014-.924-.042zm-7.556-4.655a9.942 9.942 0 0 1-1.253-2.996l.973-.234a8.948 8.948 0 0 0 1.124 2.693l-.844.537zm-1.502-5.91A9.949 9.949 0 0 1 2.88 9.23l.925.382a8.954 8.954 0 0 0-.644 2.844l-.998-.062zm2.21-5.686c.687-.848 1.51-1.58 2.436-2.166l.523.852a9.048 9.048 0 0 0-2.188 1.95l-.771-.636z"/>
        <path stroke="#434343" stroke-linecap="square" d="M13 1l-2.5 2.5L13 6"/>
    </g>
</symbol><symbol id="icon-a-ic-shape-circle" viewBox="0 0 32 32">
    <g fill="none" fill-rule="evenodd">
        <circle cx="16" cy="16" r="14.5" stroke="#434343"/>
    </g>
</symbol><symbol id="icon-a-ic-shape-rectangle" viewBox="0 0 32 32">
    <g fill="none" fill-rule="evenodd">
        <rect width="27" height="27" x="2.5" y="2.5" stroke="#434343" rx="1"/>
    </g>
</symbol><symbol id="icon-a-ic-shape-triangle" viewBox="0 0 32 32">
    <g fill="none" fill-rule="evenodd">
        <path stroke="#434343" stroke-linecap="round" stroke-linejoin="round" d="M16 2.5l15.5 27H.5z"/>
    </g>
</symbol><symbol id="icon-a-ic-shape" viewBox="0 0 24 24">
    <g fill="none" fill-rule="evenodd">
        <path fill="#434343" d="M14.706 8H21a1 1 0 0 1 1 1v12a1 1 0 0 1-1 1H9a1 1 0 0 1-1-1v-4h1v4h12V9h-5.706l-.588-1z"/>
        <path stroke="#434343" stroke-linecap="round" stroke-linejoin="round" d="M8.5 1.5l7.5 13H1z"/>
    </g>
</symbol><symbol id="icon-a-ic-text-align-center" viewBox="0 0 32 32">
    <g fill="none" fill-rule="evenodd">
        <path d="M0 0h32v32H0z"/>
        <path fill="#434343" d="M2 5h28v1H2zM8 12h16v1H8zM2 19h28v1H2zM8 26h16v1H8z"/>
    </g>
</symbol><symbol id="icon-a-ic-text-align-left" viewBox="0 0 32 32">
    <g fill="none" fill-rule="evenodd">
        <path d="M0 0h32v32H0z"/>
        <path fill="#434343" d="M2 5h28v1H2zM2 12h16v1H2zM2 19h28v1H2zM2 26h16v1H2z"/>
    </g>
</symbol><symbol id="icon-a-ic-text-align-right" viewBox="0 0 32 32">
    <g fill="none" fill-rule="evenodd">
        <path d="M0 0h32v32H0z"/>
        <path fill="#434343" d="M2 5h28v1H2zM14 12h16v1H14zM2 19h28v1H2zM14 26h16v1H14z"/>
    </g>
</symbol><symbol id="icon-a-ic-text-bold" viewBox="0 0 32 32">
    <g fill="none" fill-rule="evenodd">
        <path d="M0 0h32v32H0z"/>
        <path fill="#434343" d="M7 2h2v2H7zM7 28h2v2H7z"/>
        <path stroke="#434343" stroke-width="2" d="M9 3v12h9a6 6 0 1 0 0-12H9zM9 15v14h10a7 7 0 0 0 0-14H9z"/>
    </g>
</symbol><symbol id="icon-a-ic-text-italic" viewBox="0 0 32 32">
    <g fill="none" fill-rule="evenodd">
        <path d="M0 0h32v32H0z"/>
        <path fill="#434343" d="M15 2h5v1h-5zM11 29h5v1h-5zM17 3h1l-4 26h-1z"/>
    </g>
</symbol><symbol id="icon-a-ic-text-underline" viewBox="0 0 32 32">
    <g fill="none" fill-rule="evenodd">
        <path d="M0 0h32v32H0z"/>
        <path fill="#434343" d="M8 2v14a8 8 0 1 0 16 0V2h1v14a9 9 0 0 1-18 0V2h1zM3 29h26v1H3z"/>
        <path fill="#434343" d="M5 2h5v1H5zM22 2h5v1h-5z"/>
    </g>
</symbol><symbol id="icon-a-ic-text" viewBox="0 0 24 24">
    <g fill="#434343" fill-rule="evenodd">
        <path d="M4 3h15a1 1 0 0 1 1 1H3a1 1 0 0 1 1-1zM3 4h1v1H3zM19 4h1v1h-1z"/>
        <path d="M11 3h1v18h-1z"/>
        <path d="M10 20h3v1h-3z"/>
    </g>
</symbol><symbol id="icon-a-ic-undo" viewBox="0 0 24 24">
    <g fill="none" fill-rule="evenodd">
        <path d="M24 0H0v24h24z" opacity=".5"/>
        <path fill="#434343" d="M3 6h12a6 6 0 1 1 0 12H3v1h12a7 7 0 0 0 0-14H3v1z"/>
        <path stroke="#434343" stroke-linecap="square" d="M5 3L2.5 5.5 5 8"/>
    </g>
</symbol><symbol id="icon-a-img-bi" viewBox="0 0 257 26">
    <g fill="#FDBA3B">
        <path d="M26 5a8.001 8.001 0 0 0 0 16 8.001 8.001 0 0 0 0-16M51.893 19.812L43.676 5.396A.78.78 0 0 0 43 5a.78.78 0 0 0-.677.396l-8.218 14.418a.787.787 0 0 0 0 .792c.14.244.396.394.676.394h16.436c.28 0 .539-.15.678-.396a.796.796 0 0 0-.002-.792M15.767 5.231A.79.79 0 0 0 15.21 5H.791A.791.791 0 0 0 0 5.79v6.42a.793.793 0 0 0 .791.79h3.21v7.21c.001.21.082.408.234.56.147.148.347.23.558.23h6.416a.788.788 0 0 0 .792-.79V13h3.006c.413 0 .611-.082.762-.232.15-.149.23-.35.231-.559V5.791a.787.787 0 0 0-.233-.56M85.767 5.231A.79.79 0 0 0 85.21 5H70.791a.791.791 0 0 0-.791.79v6.42a.793.793 0 0 0 .791.79h3.21v7.21c.001.21.082.408.234.56.147.148.347.23.558.23h6.416a.788.788 0 0 0 .792-.79V13h3.006c.413 0 .611-.082.762-.232.15-.149.23-.35.231-.559V5.791a.787.787 0 0 0-.233-.56M65.942 9.948l2.17-3.76a.78.78 0 0 0 0-.792.791.791 0 0 0-.684-.396h-8.54A5.889 5.889 0 0 0 53 10.86a5.887 5.887 0 0 0 3.07 5.17l-2.184 3.782A.792.792 0 0 0 54.571 21h8.54a5.89 5.89 0 0 0 2.831-11.052M105.7 21h2.3V5h-2.3zM91 5h2.4v10.286c0 1.893 1.612 3.429 3.6 3.429s3.6-1.536 3.6-3.429V5h2.4v10.286c0 3.156-2.686 5.714-6 5.714-3.313 0-6-2.558-6-5.714V5zM252.148 21.128h-2.377V9.659h2.27v1.64c.69-1.299 1.792-1.938 3.304-1.938.497 0 .95.065 1.382.192l-.215 2.277a3.734 3.734 0 0 0-1.275-.213c-1.814 0-3.089 1.234-3.089 3.638v5.873zm-7.095-5.744a3.734 3.734 0 0 0-1.101-2.703c-.714-.766-1.6-1.149-2.658-1.149-1.058 0-1.944.383-2.679 1.149a3.803 3.803 0 0 0-1.08 2.703c0 1.063.368 1.978 1.08 2.722.735.746 1.62 1.128 2.68 1.128 1.058 0 1.943-.382 2.657-1.128.734-.744 1.101-1.659 1.101-2.722zm-9.916 0c0-1.682.583-3.086 1.729-4.256 1.166-1.17 2.635-1.767 4.428-1.767 1.793 0 3.262.597 4.407 1.767 1.167 1.17 1.75 2.574 1.75 4.256 0 1.7-.583 3.127-1.75 4.297-1.145 1.17-2.614 1.745-4.407 1.745-1.793 0-3.262-.575-4.428-1.745-1.146-1.17-1.729-2.596-1.729-4.297zm-1.5 3.233l.821 1.83c-.864.638-1.944.958-3.22.958-2.526 0-3.822-1.554-3.822-4.383V11.66h-2.01v-2h2.031V5.595h2.355v4.063h4.018v2h-4.018v5.405c0 1.469.605 2.191 1.793 2.191.626 0 1.318-.212 2.052-.638zm-12.43 2.51h2.375V9.66h-2.376v11.469zm1.23-12.977c-.929 0-1.642-.682-1.642-1.596 0-.873.713-1.554 1.643-1.554.885 0 1.576.681 1.576 1.554 0 .914-.69 1.596-1.576 1.596zm-6.49 7.234c0-1.086-.346-1.98-1.037-2.724-.692-.745-1.599-1.128-2.7-1.128-1.102 0-2.01.383-2.7 1.128-.692.744-1.037 1.638-1.037 2.724 0 1.084.345 2.02 1.036 2.766.691.744 1.6 1.105 2.7 1.105 1.102 0 2.01-.361 2.7-1.105.692-.746 1.038-1.682 1.038-2.766zm-.173-4.129V5h2.397v16.128h-2.354v-1.596c-1.015 1.255-2.333 1.873-3.91 1.873-1.663 0-3.068-.575-4.169-1.724-1.102-1.17-1.663-2.596-1.663-4.297 0-1.682.561-3.107 1.663-4.256 1.101-1.17 2.485-1.745 4.148-1.745 1.534 0 2.83.617 3.888 1.872zm-11.48 9.873h-10.218V5.405h10.195v2.318h-7.711V12h7.15v2.32h-7.15v4.489h7.733v2.319zm-23.891-9.724c-1.793 0-3.132 1.192-3.478 2.979h6.783c-.194-1.808-1.555-2.979-3.305-2.979zm5.703 3.766c0 .32-.021.703-.086 1.128h-9.095c.346 1.787 1.62 3 3.867 3 1.318 0 2.916-.49 3.953-1.234l.994 1.724c-1.189.872-3.067 1.595-5.033 1.595-4.364 0-6.243-3-6.243-6.021 0-1.724.54-3.15 1.642-4.277 1.101-1.127 2.548-1.702 4.298-1.702 1.664 0 3.046.511 4.105 1.553 1.058 1.043 1.598 2.447 1.598 4.234zm-19.949 3.894c1.08 0 1.966-.362 2.68-1.085.712-.724 1.058-1.617 1.058-2.703 0-1.084-.346-2-1.059-2.701-.713-.702-1.599-1.064-2.679-1.064-1.058 0-1.944.362-2.656 1.085-.714.702-1.059 1.596-1.059 2.68 0 1.086.345 2 1.059 2.724.712.702 1.598 1.064 2.656 1.064zm3.673-7.936V9.66h2.29v10.299c0 1.85-.584 3.32-1.728 4.404-1.146 1.085-2.68 1.638-4.58 1.638-1.945 0-3.672-.553-5.206-1.638l1.037-1.808c1.296.915 2.679 1.36 4.126 1.36 2.484 0 3.996-1.51 3.996-3.637v-.83c-1.015 1.127-2.311 1.702-3.91 1.702-1.684 0-3.089-.554-4.19-1.68-1.102-1.128-1.642-2.532-1.642-4.214 0-1.68.561-3.085 1.706-4.191 1.145-1.128 2.571-1.681 4.234-1.681 1.534 0 2.83.575 3.867 1.745zm-18.07 8.127c1.102 0 1.988-.382 2.7-1.128.714-.744 1.06-1.659 1.06-2.743 0-1.065-.346-1.98-1.06-2.724-.712-.745-1.598-1.128-2.7-1.128-1.101 0-2.008.383-2.7 1.128-.691.744-1.036 1.66-1.036 2.745 0 1.084.345 2 1.037 2.745.691.744 1.598 1.105 2.7 1.105zm3.652-8V9.66h2.29v11.469h-2.29v-1.575c-1.059 1.234-2.399 1.852-3.976 1.852-1.663 0-3.067-.575-4.168-1.745-1.102-1.17-1.642-2.617-1.642-4.34 0-1.724.54-3.128 1.642-4.256 1.1-1.128 2.505-1.681 4.168-1.681 1.577 0 2.917.617 3.976 1.872zM138.79 9.34c1.404 0 2.527.448 3.37 1.34.863.873 1.295 2.086 1.295 3.596v6.852h-2.376V14.66c0-2.021-1.036-3.128-2.657-3.128-1.727 0-2.915 1.255-2.915 3.192v6.404h-2.377v-6.426c0-1.978-1.037-3.17-2.679-3.17-1.728 0-2.937 1.277-2.937 3.234v6.362h-2.377V9.659h2.333v1.66c.692-1.212 1.988-1.979 3.522-1.979 1.533.021 2.958.767 3.586 2.107.798-1.277 2.419-2.107 4.212-2.107zm-19.517 11.788h2.484V5.405h-2.484v15.723z"/>
    </g>
</symbol></svg>