<svg xmlns="http://www.w3.org/2000/svg" height="500pt" version="1.1" viewBox="1 -117 500.718 500" width="500pt">
    <g fill="none">
        <path fill="#555555" d="M 10.949219 0.425781 C 4.90625 0.425781 0 5.332031 0 11.375 L 0 256.453125 C 0 262.5 4.90625 267.40625 10.949219 267.40625 C 16.996094 267.40625 21.902344 262.5 21.902344 256.453125 L 21.902344 11.375 C 21.902344 5.332031 16.996094 0.425781 10.949219 0.425781 Z M 10.949219 0.425781 "/>
        <path fill="#555555" d="M 490.050781 0.425781 C 484.003906 0.425781 479.097656 5.332031 479.097656 11.375 L 479.097656 256.453125 C 479.097656 262.5 484.003906 267.40625 490.050781 267.40625 C 496.09375 267.40625 501 262.5 501 256.453125 L 501 11.375 C 501 5.332031 496.09375 0.425781 490.050781 0.425781 Z M 490.050781 0.425781 " />
        <!-- <path stroke="#555555" d="M 432.226562 124.386719 L 378.460938 93.398438 C 373.226562 90.375 366.523438 92.171875 363.5 97.40625 C 362.539062 99.082031 362.023438 100.988281 362.035156 102.925781 L 362.035156 122.964844 L 138.855469 122.964844 L 138.855469 102.816406 C 138.878906 96.769531 133.996094 91.84375 127.949219 91.820312 C 126.011719 91.808594 124.105469 92.324219 122.429688 93.289062 L 68.660156 124.390625 C 63.425781 127.421875 61.652344 134.125 64.6875 139.359375 C 65.640625 141.011719 67.019531 142.382812 68.660156 143.335938 L 122.539062 174.433594 C 127.773438 177.457031 134.476562 175.660156 137.5 170.425781 C 138.460938 168.75 138.976562 166.84375 138.964844 164.90625 L 138.964844 144.867188 L 362.035156 144.867188 L 362.035156 165.015625 C 362.011719 171.0625 366.894531 175.988281 372.941406 176.011719 C 374.878906 176.023438 376.785156 175.507812 378.460938 174.542969 L 432.339844 143.441406 C 437.574219 140.410156 439.347656 133.707031 436.3125 128.472656 C 435.359375 126.820312 433.980469 125.449219 432.339844 124.496094 Z M 116.953125 146.289062 L 96.039062 133.914062 L 117.066406 121.757812 Z M 383.824219 146.289062 L 383.824219 121.757812 L 404.851562 133.914062 Z M 383.824219 146.289062 "/> -->
        <path fill="#555555" d="M432.22656,124.38672L378.46094,93.39844C373.22656,90.375 366.52344,92.17188 363.5,97.40625C362.53906,99.08203 362.02344,100.98828 362.03516,102.92578L362.03516,122.96484L138.85547,122.96484L138.85547,102.81641C138.87891,96.76953 133.99609,91.84375 127.94922,91.82031C126.01172,91.80859 124.10547,92.32422 122.42969,93.28906L68.66016,124.39063C63.42578,127.42188 61.65234,134.125 64.6875,139.35938C65.64063,141.01172 67.01953,142.38281 68.66016,143.33594L122.53906,174.43359C127.77344,177.45703 134.47656,175.66016 137.5,170.42578C138.46094,168.75 138.97656,166.84375 138.96484,164.90625L138.96484,144.86719L362.03516,144.86719L362.03516,165.01563C362.01172,171.0625 366.89453,175.98828 372.94141,176.01172C374.87891,176.02344 376.78516,175.50781 378.46094,174.54297L432.33984,143.44141C437.57422,140.41016 439.34766,133.70703 436.3125,128.47266C435.35938,126.82031 433.98047,125.44922 432.33984,124.49609zM116.95313,146.28906L122.05062,147.78689L117.06641,121.75781zM371.10746,135.3064L384.40225,141.41099L392.1348,122.9314zM383.82422,146.28906" id="svg_4" class=""/>
    </g>
</svg>